<?xml version="1.0" encoding="utf-8"?>
<!-- Generator: Adobe Illustrator 23.0.2, SVG Export Plug-In . SVG Version: 6.00 Build 0)  -->
<svg version="1.1" id="Layer_1" xmlns="http://www.w3.org/2000/svg" xmlns:xlink="http://www.w3.org/1999/xlink" x="0px" y="0px"
	 viewBox="0 0 16 16" style="enable-background:new 0 0 16 16;" xml:space="preserve">
<style type="text/css">
	.st0{fill:#8C1A00;}
	.st1{fill:#FFFFFF;}
</style>
<path class="st0" d="M8.74,1.08c0,0-1.29-0.17-1.72,0C6.59,1.25,4.43,1.34,4.17,2.28c0,0-0.3,0.39-0.65,0.65
	C3.18,3.19,1.46,4.74,1.46,5.86c0,0-0.69,1.38,0.17,3.88c0.86,2.5,1.72,3.36,1.72,3.36s0.78,0.69,1.21,0.95S6.46,15,7.23,15
	c0.78,0,2.59,0,3.62-0.34c0,0,1.03-0.09,1.9-0.95c0.86-0.86,1.38-1.38,1.64-2.24c0,0,0.34-1.21,0.6-1.81
	c0.26-0.6,0.43-0.95,0.34-2.41c-0.09-1.47-1.03-2.76-1.03-2.76s-1.29-1.64-1.64-1.98c-0.34-0.34-1.72-1.47-2.59-1.38
	C9.22,1.21,8.74,1.08,8.74,1.08z"/>
<path class="st1" d="M8.61,2.24c0,0-1.81-0.17-2.5,0.34c-0.69,0.52-1.9,1.55-1.9,1.55S2.92,5.08,2.75,6.29
	C2.58,7.5,2.24,8.36,2.58,9.31c0.34,0.95,0.95,2.59,1.47,2.85c0.52,0.26,1.55,1.64,4.57,1.55c3.02-0.09,4.4-2.33,4.4-2.33
	s1.55-2.07,1.12-4.31C13.7,4.83,11.03,2.5,8.61,2.24z"/>
<path class="st0" d="M8.36,2.58c0,0-1.38,0.17-1.64,0.43c0,0-1.12,0.43-1.38,0.52C5.08,3.62,3.18,5,3.27,6.03
	c0,0-0.6,1.47-0.34,2.33c0,0,0,0.95,0.52,1.64c0,0,0.43,1.47,1.21,1.98c0,0,0.95,1.12,3.19,1.47c2.24,0.34,3.71-1.03,3.71-1.03
	s1.81-2.07,1.98-3.71c0.17-1.64-0.26-2.59-0.6-3.36C12.58,4.57,9.82,2.67,8.36,2.58z"/>
<circle class="st1" cx="5.94" cy="7.24" r="0.65"/>
<circle class="st1" cx="8.87" cy="11.29" r="0.56"/>
<circle class="st1" cx="4.13" cy="8.19" r="0.56"/>
<circle class="st1" cx="5.85" cy="12.07" r="0.39"/>
<ellipse transform="matrix(0.7071 -0.7071 0.7071 0.7071 -1.3361 7.3858)" class="st1" cx="8.25" cy="5.31" rx="0.35" ry="0.38"/>
<circle class="st1" cx="10.17" cy="6.38" r="0.65"/>
<circle class="st1" cx="8.36" cy="8.71" r="0.65"/>
<circle class="st1" cx="6.11" cy="4.22" r="0.65"/>
<circle class="st1" cx="12.58" cy="7.33" r="0.65"/>
<circle class="st1" cx="6.11" cy="10.07" r="0.47"/>
<circle class="st1" cx="9.56" cy="4.22" r="0.65"/>
<circle class="st1" cx="11.29" cy="11.12" r="0.65"/>
<circle class="st1" cx="10.42" cy="8.71" r="0.56"/>
</svg>
