<?xml version="1.0" encoding="utf-8"?>
<!-- Generator: Adobe Illustrator 23.0.2, SVG Export Plug-In . SVG Version: 6.00 Build 0)  -->
<svg version="1.1" id="Layer_1" xmlns="http://www.w3.org/2000/svg" xmlns:xlink="http://www.w3.org/1999/xlink" x="0px" y="0px"
	 viewBox="0 0 599.98 200.02" style="enable-background:new 0 0 599.98 200.02;" xml:space="preserve">
<style type="text/css">
	.st0{fill:#8C1A00;}
	.st1{fill:#FFFFFF;}
	.st2{enable-background:new    ;}
	.st3{fill:none;stroke:#8C1A00;stroke-width:5;stroke-miterlimit:10;}
</style>
<g>
	<path class="st0" d="M407.73,78.37c0,0-6.24-0.83-8.31,0s-12.47,1.25-13.72,5.82c0,0-1.45,1.87-3.12,3.12
		c-1.66,1.25-9.98,8.73-9.98,14.13c0,0-3.33,6.65,0.83,18.71c4.16,12.05,8.31,16.21,8.31,16.21s3.74,3.33,5.82,4.57
		s9.14,4.57,12.89,4.57c3.74,0,12.47,0,17.46-1.66c0,0,4.99-0.42,9.14-4.57c4.16-4.16,6.65-6.65,7.9-10.81c0,0,1.66-5.82,2.91-8.73
		s2.08-4.57,1.66-11.64c-0.42-7.07-4.99-13.3-4.99-13.3s-6.24-7.9-7.9-9.56c-1.66-1.66-8.31-7.07-12.47-6.65
		C410.01,78.99,407.73,78.37,407.73,78.37z"/>
	<path class="st1" d="M407.1,83.98c0,0-8.73-0.83-12.05,1.66c-3.33,2.49-9.14,7.48-9.14,7.48s-6.24,4.57-7.07,10.39
		c-0.83,5.82-2.49,9.98-0.83,14.55s4.57,12.47,7.07,13.72s7.48,7.9,22.03,7.48s21.2-11.22,21.2-11.22s7.48-9.98,5.4-20.78
		C431.63,96.45,418.74,85.23,407.1,83.98z"/>
	<path class="st0" d="M405.86,85.64c0,0-6.65,0.83-7.9,2.08c0,0-5.4,2.08-6.65,2.49c-1.25,0.42-10.39,7.07-9.98,12.05
		c0,0-2.91,7.07-1.66,11.22c0,0,0,4.57,2.49,7.9c0,0,2.08,7.07,5.82,9.56c0,0,4.57,5.4,15.38,7.07c10.81,1.66,17.87-4.99,17.87-4.99
		s8.73-9.98,9.56-17.87s-1.25-12.47-2.91-16.21C426.22,95.2,412.92,86.06,405.86,85.64z"/>
	<circle class="st1" cx="394.22" cy="108.09" r="3.12"/>
	<circle class="st1" cx="408.35" cy="127.63" r="2.7"/>
	<circle class="st1" cx="385.49" cy="112.66" r="2.7"/>
	<circle class="st1" cx="393.8" cy="131.37" r="1.87"/>
	
		<ellipse transform="matrix(0.7071 -0.7071 0.7071 0.7071 48.8862 315.5422)" class="st1" cx="405.34" cy="98.76" rx="1.71" ry="1.85"/>
	<circle class="st1" cx="414.59" cy="103.93" r="3.12"/>
	<circle class="st1" cx="405.86" cy="115.16" r="3.12"/>
	<circle class="st1" cx="395.05" cy="93.54" r="3.12"/>
	<circle class="st1" cx="426.22" cy="108.51" r="3.12"/>
	<circle class="st1" cx="395.05" cy="121.73" r="2.29"/>
	<circle class="st1" cx="411.68" cy="93.54" r="3.12"/>
	<circle class="st1" cx="419.99" cy="126.79" r="3.12"/>
	<circle class="st1" cx="415.83" cy="115.16" r="2.7"/>
	<circle class="st0" cx="234.02" cy="82.54" r="14.54"/>
	<circle class="st1" cx="233.96" cy="82.55" r="2.91"/>
	<path class="st0" d="M223.59,96.36c0,0,9.63,6.56,20.03-0.45c0,0,2.28-1.59,2.91-0.29c0.63,1.3-1.32,3.22-1.32,3.22
		c-0.13,0.28-7.15,4.24-7.14,3.16l2.28,30.39c0,0,1.21,7.77-4.6,7.71c-5.81-0.06-5.75-6.52-5.75-6.52l0.32-31.66
		c0,0-6.45-0.71-9.01-3.97C221.31,97.95,220.69,95.36,223.59,96.36z"/>
</g>
<g id="Layer_5">
	<g>
		<g class="st2">
			<path class="st0" d="M192.04,98.88h-14.53v30.94c0,1.25,0.39,2.19,1.17,2.81c0.78,0.63,1.79,0.94,3.05,0.94h3.28v2.81h-22.5
				v-2.81h3.28c1.56,0,2.65-0.31,3.28-0.94c0.62-0.62,0.94-1.56,0.94-2.81V62.78c0-1.25-0.31-2.18-0.94-2.81
				c-0.63-0.62-1.72-0.94-3.28-0.94h-2.81v-2.81h27.66c7.81,0,13.83,1.96,18.05,5.86c4.22,3.91,6.33,8.83,6.33,14.77
				c0,7.19-2.27,12.66-6.8,16.41C203.68,97,198.29,98.88,192.04,98.88z M177.51,96.06h11.72c4.69,0,8.83-1.41,12.42-4.22
				c3.59-2.81,5.39-7.65,5.39-14.53c0-6.25-1.49-10.85-4.45-13.83c-2.97-2.97-7.73-4.45-14.3-4.45h-6.56
				c-1.25,0-2.27,0.31-3.05,0.94c-0.78,0.63-1.17,1.57-1.17,2.81V96.06z"/>
		</g>
		<g class="st2">
			<path class="st3" d="M192.04,98.88h-14.53v30.94c0,1.25,0.39,2.19,1.17,2.81c0.78,0.63,1.79,0.94,3.05,0.94h3.28v2.81h-22.5
				v-2.81h3.28c1.56,0,2.65-0.31,3.28-0.94c0.62-0.62,0.94-1.56,0.94-2.81V62.78c0-1.25-0.31-2.18-0.94-2.81
				c-0.63-0.62-1.72-0.94-3.28-0.94h-2.81v-2.81h27.66c7.81,0,13.83,1.96,18.05,5.86c4.22,3.91,6.33,8.83,6.33,14.77
				c0,7.19-2.27,12.66-6.8,16.41C203.68,97,198.29,98.88,192.04,98.88z M177.51,96.06h11.72c4.69,0,8.83-1.41,12.42-4.22
				c3.59-2.81,5.39-7.65,5.39-14.53c0-6.25-1.49-10.85-4.45-13.83c-2.97-2.97-7.73-4.45-14.3-4.45h-6.56
				c-1.25,0-2.27,0.31-3.05,0.94c-0.78,0.63-1.17,1.57-1.17,2.81V96.06z"/>
		</g>
	</g>
	<g>
		<g class="st2">
			<path class="st0" d="M301.48,111.24h-37.97c0,8.44,1.64,14.46,4.92,18.05c3.28,3.6,7.57,5.39,12.89,5.39
				c4.06,0,7.5-1.17,10.31-3.52s4.84-5.23,6.09-8.67l2.34,0.94c-0.94,3.44-3.05,6.8-6.33,10.08s-7.73,4.92-13.36,4.92
				c-7.19,0-13.05-2.34-17.58-7.03c-4.53-4.69-6.8-11.4-6.8-20.16c0-7.81,2.26-14.3,6.8-19.45c4.53-5.16,10.08-7.73,16.64-7.73
				c5.93,0,11.09,2.04,15.47,6.09C299.29,94.21,301.48,101.24,301.48,111.24z M263.52,108.42h30c0.31-6.87-0.86-12.11-3.52-15.7
				c-2.66-3.59-6.17-5.39-10.55-5.39c-4.69,0-8.52,1.88-11.48,5.63C265,96.7,263.52,101.86,263.52,108.42z"/>
		</g>
		<g class="st2">
			<path class="st3" d="M301.48,111.24h-37.97c0,8.44,1.64,14.46,4.92,18.05c3.28,3.6,7.57,5.39,12.89,5.39
				c4.06,0,7.5-1.17,10.31-3.52s4.84-5.23,6.09-8.67l2.34,0.94c-0.94,3.44-3.05,6.8-6.33,10.08s-7.73,4.92-13.36,4.92
				c-7.19,0-13.05-2.34-17.58-7.03c-4.53-4.69-6.8-11.4-6.8-20.16c0-7.81,2.26-14.3,6.8-19.45c4.53-5.16,10.08-7.73,16.64-7.73
				c5.93,0,11.09,2.04,15.47,6.09C299.29,94.21,301.48,101.24,301.48,111.24z M263.52,108.42h30c0.31-6.87-0.86-12.11-3.52-15.7
				c-2.66-3.59-6.17-5.39-10.55-5.39c-4.69,0-8.52,1.88-11.48,5.63C265,96.7,263.52,101.86,263.52,108.42z"/>
		</g>
	</g>
	<g>
		<g class="st2">
			<path class="st0" d="M349.87,64.23c-2.81-2.97-6.25-4.45-10.31-4.45c-4.69,0-8.99,3.21-12.89,9.61
				c-3.91,6.41-5.86,16.17-5.86,29.3c0,8.75,1.48,17.04,4.45,24.84c2.97,7.81,7.89,11.72,14.77,11.72c3.43,0,6.17-0.7,8.2-2.11
				c2.03-1.41,3.2-3.52,3.52-6.33v-15.94c0-1.88-0.47-3.28-1.41-4.22s-2.34-1.41-4.22-1.41h-2.81v-2.81h23.44v2.81h-2.34
				c-1.57,0-2.81,0.47-3.75,1.41s-1.41,2.19-1.41,3.75v23.44c-0.63-0.31-1.17-0.54-1.64-0.7c-0.47-0.15-1.02-0.23-1.64-0.23
				c-0.63,0-1.25,0.08-1.88,0.23c-0.63,0.16-1.25,0.55-1.88,1.17c-1.88,1.57-3.83,2.66-5.86,3.28c-2.04,0.63-4.3,0.94-6.8,0.94
				c-9.38,0-16.25-4.14-20.63-12.42c-4.38-8.28-6.56-17.42-6.56-27.42c0-11.56,2.58-21.48,7.73-29.77
				c5.16-8.28,11.64-12.42,19.45-12.42c1.88,0,4.06,0.47,6.56,1.41c2.5,0.94,4.06,1.41,4.69,1.41c0.94,0,1.88-0.23,2.81-0.7
				s1.71-1.17,2.34-2.11l3.75,21.09l-2.81,0.94C355.03,71.96,352.69,67.2,349.87,64.23z"/>
		</g>
		<g class="st2">
			<path class="st3" d="M349.87,64.23c-2.81-2.97-6.25-4.45-10.31-4.45c-4.69,0-8.99,3.21-12.89,9.61
				c-3.91,6.41-5.86,16.17-5.86,29.3c0,8.75,1.48,17.04,4.45,24.84c2.97,7.81,7.89,11.72,14.77,11.72c3.43,0,6.17-0.7,8.2-2.11
				c2.03-1.41,3.2-3.52,3.52-6.33v-15.94c0-1.88-0.47-3.28-1.41-4.22s-2.34-1.41-4.22-1.41h-2.81v-2.81h23.44v2.81h-2.34
				c-1.57,0-2.81,0.47-3.75,1.41s-1.41,2.19-1.41,3.75v23.44c-0.63-0.31-1.17-0.54-1.64-0.7c-0.47-0.15-1.02-0.23-1.64-0.23
				c-0.63,0-1.25,0.08-1.88,0.23c-0.63,0.16-1.25,0.55-1.88,1.17c-1.88,1.57-3.83,2.66-5.86,3.28c-2.04,0.63-4.3,0.94-6.8,0.94
				c-9.38,0-16.25-4.14-20.63-12.42c-4.38-8.28-6.56-17.42-6.56-27.42c0-11.56,2.58-21.48,7.73-29.77
				c5.16-8.28,11.64-12.42,19.45-12.42c1.88,0,4.06,0.47,6.56,1.41c2.5,0.94,4.06,1.41,4.69,1.41c0.94,0,1.88-0.23,2.81-0.7
				s1.71-1.17,2.34-2.11l3.75,21.09l-2.81,0.94C355.03,71.96,352.69,67.2,349.87,64.23z"/>
		</g>
	</g>
</g>
<g id="Layer_6">
</g>
</svg>
