<?xml version="1.0" encoding="utf-8"?>
<!-- Generator: Adobe Illustrator 23.0.2, SVG Export Plug-In . SVG Version: 6.00 Build 0)  -->
<svg version="1.1" id="Layer_1" xmlns="http://www.w3.org/2000/svg" xmlns:xlink="http://www.w3.org/1999/xlink" x="0px" y="0px"
	 viewBox="0 0 599.98 200.02" style="enable-background:new 0 0 599.98 200.02;" xml:space="preserve">
<style type="text/css">
	.st0{fill:#8C1A00;}
	.st1{fill:#FFFFFF;}
	.st2{enable-background:new    ;}
	.st3{fill:none;stroke:#8C1A00;stroke-width:5;stroke-miterlimit:10;}
	.st4{fill:#8C6244;stroke:#8C6244;stroke-miterlimit:10;}
</style>
<g>
	<path class="st0" d="M403.73,60.37c0,0-6.24-0.83-8.31,0s-12.47,1.25-13.72,5.82c0,0-1.45,1.87-3.12,3.12
		c-1.66,1.25-9.98,8.73-9.98,14.13c0,0-3.33,6.65,0.83,18.71c4.16,12.05,8.31,16.21,8.31,16.21s3.74,3.33,5.82,4.57
		s9.14,4.57,12.89,4.57c3.74,0,12.47,0,17.46-1.66c0,0,4.99-0.42,9.14-4.57c4.16-4.16,6.65-6.65,7.9-10.81c0,0,1.66-5.82,2.91-8.73
		s2.08-4.57,1.66-11.64c-0.42-7.07-4.99-13.3-4.99-13.3s-6.24-7.9-7.9-9.56c-1.66-1.66-8.31-7.07-12.47-6.65
		C406.01,60.99,403.73,60.37,403.73,60.37z"/>
	<path class="st1" d="M403.1,65.98c0,0-8.73-0.83-12.05,1.66c-3.33,2.49-9.14,7.48-9.14,7.48s-6.24,4.57-7.07,10.39
		c-0.83,5.82-2.49,9.98-0.83,14.55s4.57,12.47,7.07,13.72s7.48,7.9,22.03,7.48s21.2-11.22,21.2-11.22s7.48-9.98,5.4-20.78
		C427.63,78.45,414.74,67.23,403.1,65.98z"/>
	<path class="st0" d="M401.86,67.64c0,0-6.65,0.83-7.9,2.08c0,0-5.4,2.08-6.65,2.49c-1.25,0.42-10.39,7.07-9.98,12.05
		c0,0-2.91,7.07-1.66,11.22c0,0,0,4.57,2.49,7.9c0,0,2.08,7.07,5.82,9.56c0,0,4.57,5.4,15.38,7.07c10.81,1.66,17.87-4.99,17.87-4.99
		s8.73-9.98,9.56-17.87s-1.25-12.47-2.91-16.21C422.22,77.2,408.92,68.06,401.86,67.64z"/>
	<circle class="st1" cx="390.22" cy="90.09" r="3.12"/>
	<circle class="st1" cx="404.35" cy="109.63" r="2.7"/>
	<circle class="st1" cx="381.49" cy="94.66" r="2.7"/>
	<circle class="st1" cx="389.8" cy="113.37" r="1.87"/>
	
		<ellipse transform="matrix(0.7071 -0.7071 0.7071 0.7071 60.4426 307.4417)" class="st1" cx="401.34" cy="80.76" rx="1.71" ry="1.85"/>
	<circle class="st1" cx="410.59" cy="85.93" r="3.12"/>
	<circle class="st1" cx="401.86" cy="97.16" r="3.12"/>
	<circle class="st1" cx="391.05" cy="75.54" r="3.12"/>
	<circle class="st1" cx="422.22" cy="90.51" r="3.12"/>
	<circle class="st1" cx="391.05" cy="103.73" r="2.29"/>
	<circle class="st1" cx="407.68" cy="75.54" r="3.12"/>
	<circle class="st1" cx="415.99" cy="108.79" r="3.12"/>
	<circle class="st1" cx="411.83" cy="97.16" r="2.7"/>
	<circle class="st0" cx="230.02" cy="64.54" r="14.54"/>
	<circle class="st1" cx="229.96" cy="64.55" r="2.91"/>
	<path class="st0" d="M219.59,78.36c0,0,9.63,6.56,20.03-0.45c0,0,2.28-1.59,2.91-0.29c0.63,1.3-1.32,3.22-1.32,3.22
		c-0.13,0.28-7.15,4.24-7.14,3.16l2.28,30.39c0,0,1.21,7.77-4.6,7.71c-5.81-0.06-5.75-6.52-5.75-6.52l0.32-31.66
		c0,0-6.45-0.71-9.01-3.97C217.31,79.95,216.69,77.36,219.59,78.36z"/>
</g>
<g id="Layer_5">
	<g>
		<g class="st2">
			<path class="st0" d="M188.04,80.88h-14.53v30.94c0,1.25,0.39,2.19,1.17,2.81c0.78,0.63,1.79,0.94,3.05,0.94h3.28v2.81h-22.5
				v-2.81h3.28c1.56,0,2.65-0.31,3.28-0.94c0.62-0.62,0.94-1.56,0.94-2.81V44.78c0-1.25-0.31-2.18-0.94-2.81
				c-0.63-0.62-1.72-0.94-3.28-0.94h-2.81v-2.81h27.66c7.81,0,13.83,1.96,18.05,5.86c4.22,3.91,6.33,8.83,6.33,14.77
				c0,7.19-2.27,12.66-6.8,16.41C199.68,79,194.29,80.88,188.04,80.88z M173.51,78.06h11.72c4.69,0,8.83-1.41,12.42-4.22
				c3.59-2.81,5.39-7.65,5.39-14.53c0-6.25-1.49-10.85-4.45-13.83c-2.97-2.97-7.73-4.45-14.3-4.45h-6.56
				c-1.25,0-2.27,0.31-3.05,0.94c-0.78,0.63-1.17,1.57-1.17,2.81V78.06z"/>
		</g>
		<g class="st2">
			<path class="st3" d="M188.04,80.88h-14.53v30.94c0,1.25,0.39,2.19,1.17,2.81c0.78,0.63,1.79,0.94,3.05,0.94h3.28v2.81h-22.5
				v-2.81h3.28c1.56,0,2.65-0.31,3.28-0.94c0.62-0.62,0.94-1.56,0.94-2.81V44.78c0-1.25-0.31-2.18-0.94-2.81
				c-0.63-0.62-1.72-0.94-3.28-0.94h-2.81v-2.81h27.66c7.81,0,13.83,1.96,18.05,5.86c4.22,3.91,6.33,8.83,6.33,14.77
				c0,7.19-2.27,12.66-6.8,16.41C199.68,79,194.29,80.88,188.04,80.88z M173.51,78.06h11.72c4.69,0,8.83-1.41,12.42-4.22
				c3.59-2.81,5.39-7.65,5.39-14.53c0-6.25-1.49-10.85-4.45-13.83c-2.97-2.97-7.73-4.45-14.3-4.45h-6.56
				c-1.25,0-2.27,0.31-3.05,0.94c-0.78,0.63-1.17,1.57-1.17,2.81V78.06z"/>
		</g>
	</g>
	<g>
		<g class="st2">
			<path class="st0" d="M297.48,93.24h-37.97c0,8.44,1.64,14.46,4.92,18.05c3.28,3.6,7.57,5.39,12.89,5.39
				c4.06,0,7.5-1.17,10.31-3.52s4.84-5.23,6.09-8.67l2.34,0.94c-0.94,3.44-3.05,6.8-6.33,10.08s-7.73,4.92-13.36,4.92
				c-7.19,0-13.05-2.34-17.58-7.03c-4.53-4.69-6.8-11.4-6.8-20.16c0-7.81,2.26-14.3,6.8-19.45c4.53-5.16,10.08-7.73,16.64-7.73
				c5.93,0,11.09,2.04,15.47,6.09C295.29,76.21,297.48,83.24,297.48,93.24z M259.52,90.42h30c0.31-6.87-0.86-12.11-3.52-15.7
				c-2.66-3.59-6.17-5.39-10.55-5.39c-4.69,0-8.52,1.88-11.48,5.63C261,78.7,259.52,83.86,259.52,90.42z"/>
		</g>
		<g class="st2">
			<path class="st3" d="M297.48,93.24h-37.97c0,8.44,1.64,14.46,4.92,18.05c3.28,3.6,7.57,5.39,12.89,5.39
				c4.06,0,7.5-1.17,10.31-3.52s4.84-5.23,6.09-8.67l2.34,0.94c-0.94,3.44-3.05,6.8-6.33,10.08s-7.73,4.92-13.36,4.92
				c-7.19,0-13.05-2.34-17.58-7.03c-4.53-4.69-6.8-11.4-6.8-20.16c0-7.81,2.26-14.3,6.8-19.45c4.53-5.16,10.08-7.73,16.64-7.73
				c5.93,0,11.09,2.04,15.47,6.09C295.29,76.21,297.48,83.24,297.48,93.24z M259.52,90.42h30c0.31-6.87-0.86-12.11-3.52-15.7
				c-2.66-3.59-6.17-5.39-10.55-5.39c-4.69,0-8.52,1.88-11.48,5.63C261,78.7,259.52,83.86,259.52,90.42z"/>
		</g>
	</g>
	<g>
		<g class="st2">
			<path class="st0" d="M345.87,46.23c-2.81-2.97-6.25-4.45-10.31-4.45c-4.69,0-8.99,3.21-12.89,9.61
				c-3.91,6.41-5.86,16.17-5.86,29.3c0,8.75,1.48,17.04,4.45,24.84c2.97,7.81,7.89,11.72,14.77,11.72c3.43,0,6.17-0.7,8.2-2.11
				c2.03-1.41,3.2-3.52,3.52-6.33V92.87c0-1.88-0.47-3.28-1.41-4.22s-2.34-1.41-4.22-1.41h-2.81v-2.81h23.44v2.81h-2.34
				c-1.57,0-2.81,0.47-3.75,1.41s-1.41,2.19-1.41,3.75v23.44c-0.63-0.31-1.17-0.54-1.64-0.7c-0.47-0.15-1.02-0.23-1.64-0.23
				c-0.63,0-1.25,0.08-1.88,0.23c-0.63,0.16-1.25,0.55-1.88,1.17c-1.88,1.57-3.83,2.66-5.86,3.28c-2.04,0.63-4.3,0.94-6.8,0.94
				c-9.38,0-16.25-4.14-20.63-12.42c-4.38-8.28-6.56-17.42-6.56-27.42c0-11.56,2.58-21.48,7.73-29.77
				c5.16-8.28,11.64-12.42,19.45-12.42c1.88,0,4.06,0.47,6.56,1.41c2.5,0.94,4.06,1.41,4.69,1.41c0.94,0,1.88-0.23,2.81-0.7
				s1.71-1.17,2.34-2.11l3.75,21.09l-2.81,0.94C351.03,53.96,348.69,49.2,345.87,46.23z"/>
		</g>
		<g class="st2">
			<path class="st3" d="M345.87,46.23c-2.81-2.97-6.25-4.45-10.31-4.45c-4.69,0-8.99,3.21-12.89,9.61
				c-3.91,6.41-5.86,16.17-5.86,29.3c0,8.75,1.48,17.04,4.45,24.84c2.97,7.81,7.89,11.72,14.77,11.72c3.43,0,6.17-0.7,8.2-2.11
				c2.03-1.41,3.2-3.52,3.52-6.33V92.87c0-1.88-0.47-3.28-1.41-4.22s-2.34-1.41-4.22-1.41h-2.81v-2.81h23.44v2.81h-2.34
				c-1.57,0-2.81,0.47-3.75,1.41s-1.41,2.19-1.41,3.75v23.44c-0.63-0.31-1.17-0.54-1.64-0.7c-0.47-0.15-1.02-0.23-1.64-0.23
				c-0.63,0-1.25,0.08-1.88,0.23c-0.63,0.16-1.25,0.55-1.88,1.17c-1.88,1.57-3.83,2.66-5.86,3.28c-2.04,0.63-4.3,0.94-6.8,0.94
				c-9.38,0-16.25-4.14-20.63-12.42c-4.38-8.28-6.56-17.42-6.56-27.42c0-11.56,2.58-21.48,7.73-29.77
				c5.16-8.28,11.64-12.42,19.45-12.42c1.88,0,4.06,0.47,6.56,1.41c2.5,0.94,4.06,1.41,4.69,1.41c0.94,0,1.88-0.23,2.81-0.7
				s1.71-1.17,2.34-2.11l3.75,21.09l-2.81,0.94C351.03,53.96,348.69,49.2,345.87,46.23z"/>
		</g>
	</g>
</g>
<g id="Layer_6">
</g>
<g>
	<path class="st4" d="M150.78,151.9v-0.53c1.6,0,1.99-0.48,1.99-1.34v-11.4c0-0.99-0.4-1.3-1.99-1.3v-0.52h5.5v0.52
		c-1.81,0-2.18,0.32-2.18,1.3v11.4c0,0.86,0.38,1.34,1.55,1.34h2.16c2.02,0,3.78-1.28,4.93-3.34l0.4,0.21l-1.53,3.65H150.78z"/>
	<path class="st4" d="M174.8,147c0,2.71-1.51,5.23-4.79,5.23c-3.3,0-4.79-2.52-4.79-5.23c0-2.69,1.49-5.27,4.79-5.27
		C173.29,141.73,174.8,144.32,174.8,147z M166.59,147c0,2.44,1.05,4.72,3.42,4.72c2.35,0,3.4-2.29,3.4-4.72s-1.05-4.77-3.4-4.77
		C167.64,142.24,166.59,144.57,166.59,147z"/>
	<path class="st4" d="M186.35,149.61c-0.94,1.37-2.1,2.63-4.2,2.63c-2.56,0-4.62-2.21-4.62-4.93c0-3.36,2.44-5.56,5.08-5.56
		c1.53,0,3.42,0.82,3.42,2.12c0,0.48-0.31,0.82-0.82,0.82c-0.76,0-0.8-0.63-1.07-1.15c-0.42-0.76-0.84-1.24-2.08-1.24
		c-1.66,0-3.15,1.66-3.15,4.6c0,2.67,1.26,4.51,3.61,4.51c1.26,0,2.23-0.42,3.51-1.97L186.35,149.61z"/>
	<path class="st4" d="M198.26,151.2c-0.44,0.59-0.86,1.03-1.68,1.03c-0.94,0-1.13-0.69-1.13-1.43c-0.88,0.82-1.89,1.43-3.59,1.43
		c-2.04,0-2.96-1.07-2.96-2.44c0-1.87,2.18-3.3,6.55-3.97v-1.49c0-1.26-0.61-2.1-1.87-2.1c-1.6,0-2.23,0.44-2.6,1.51
		c-0.17,0.46-0.4,0.88-0.92,0.88c-0.55,0-0.84-0.34-0.84-0.9c0-1.05,1.72-1.99,4.47-1.99c1.83,0,3.02,0.97,3.02,2.79v5.82
		c0,0.63,0.06,1.13,0.4,1.13c0.27,0,0.57-0.08,0.97-0.48L198.26,151.2z M195.44,146.4c-2.81,0.32-5.17,1.47-5.17,3.36
		c0,0.94,0.71,1.64,1.97,1.64c1.53,0,2.31-0.36,3.19-1.2V146.4z"/>
	<path class="st4" d="M199.96,151.9v-0.53c1.03,0,1.39-0.4,1.39-1.28v-11.23c0-0.63-0.31-0.99-1.39-0.99l-0.08-0.29l2.73-0.97v13.48
		c0,0.88,0.42,1.28,1.47,1.28v0.53H199.96z"/>
	<path class="st4" d="M212.83,151.9v-0.53c1.55,0,1.99-0.52,1.99-1.55v-11.17c0-1.01-0.44-1.32-1.99-1.32v-0.52h7.81
		c2.33,0,4.26,1.36,4.26,3.78c0,2.73-1.91,4.2-4.43,4.2h-4.33v5.04c0,1.03,0.46,1.55,2.18,1.55v0.53H212.83z M216.15,144.25h3.97
		c2.23,0,3.34-1.97,3.34-3.67c0-1.68-1.13-3.25-3.32-3.25h-2.5c-1.03,0-1.49,0.32-1.49,1.32V144.25z"/>
	<path class="st4" d="M227.07,151.9v-0.53c0.97,0,1.39-0.19,1.39-1.03v-6.4c0-0.55-0.23-0.95-1.41-0.95l-0.06-0.31l2.73-0.95v8.61
		c0,0.84,0.31,1.03,1.41,1.03v0.53H227.07z M230.22,137.49c0,0.52-0.38,1.05-1.11,1.05c-0.76,0-1.09-0.53-1.09-1.05
		s0.34-1.05,1.09-1.05C229.84,136.44,230.22,136.97,230.22,137.49z"/>
	<path class="st4" d="M234.67,141.86h7.03v0.4l-7.03,9.11h3.42c1.3,0,2.23-0.57,3.51-2.92l0.29,0.13l-1.24,3.32h-7.56v-0.34
		l7.01-9.18h-3.13c-1.2,0-2.16,0.92-3.25,2.63l-0.31-0.11L234.67,141.86z"/>
	<path class="st4" d="M245.17,141.86h7.03v0.4l-7.03,9.11h3.42c1.3,0,2.23-0.57,3.51-2.92l0.29,0.13l-1.24,3.32h-7.56v-0.34
		l7.01-9.18h-3.13c-1.2,0-2.16,0.92-3.25,2.63l-0.31-0.11L245.17,141.86z"/>
	<path class="st4" d="M263.82,151.2c-0.44,0.59-0.86,1.03-1.68,1.03c-0.94,0-1.13-0.69-1.13-1.43c-0.88,0.82-1.89,1.43-3.59,1.43
		c-2.04,0-2.96-1.07-2.96-2.44c0-1.87,2.18-3.3,6.55-3.97v-1.49c0-1.26-0.61-2.1-1.87-2.1c-1.6,0-2.23,0.44-2.6,1.51
		c-0.17,0.46-0.4,0.88-0.92,0.88c-0.55,0-0.84-0.34-0.84-0.9c0-1.05,1.72-1.99,4.47-1.99c1.83,0,3.02,0.97,3.02,2.79v5.82
		c0,0.63,0.06,1.13,0.4,1.13c0.27,0,0.57-0.08,0.97-0.48L263.82,151.2z M261,146.4c-2.81,0.32-5.17,1.47-5.17,3.36
		c0,0.94,0.71,1.64,1.97,1.64c1.53,0,2.31-0.36,3.19-1.2V146.4z"/>
	<path class="st4" d="M266.25,148.87c0.94,1.28,2.29,2.79,4.62,2.79c1.39,0,2.44-0.8,2.44-2.16c0-0.97-0.76-1.49-2.96-2.18
		c-3.28-1.01-4.03-1.91-4.03-3.28c0-1.28,1.26-2.31,3.28-2.31c1.15,0,1.83,0.38,2.25,0.38c0.08,0,0.15-0.02,0.21-0.04l0.78-0.36
		l1.2,3l-0.36,0.17c-0.46-0.84-2.04-2.62-4.07-2.62c-1.3,0-2.2,0.63-2.2,1.78c0,1.03,1.05,1.47,2.96,2.06
		c2.88,0.88,4.01,1.72,4.01,3.4c0,1.87-1.74,2.73-3.49,2.73c-1.2,0-1.89-0.42-2.48-0.42c-0.1,0-0.21,0-0.31,0.04l-0.86,0.36L266,149
		L266.25,148.87z"/>
	<path class="st4" d="M277.57,154.5c1.05-0.95,1.43-1.43,1.43-2.1c0-0.31-0.13-0.53-0.42-0.53c-0.31,0-0.78-0.4-0.78-1.01
		c0-0.57,0.5-1.05,1.03-1.05c0.63,0,1.2,0.4,1.2,1.36c0,1.68-1.05,2.67-2.23,3.57L277.57,154.5z"/>
	<path class="st4" d="M289.75,151.9v-0.53c1.6,0,1.99-0.48,1.99-1.34v-11.4c0-0.99-0.4-1.3-1.99-1.3v-0.52h5.5v0.52
		c-1.81,0-2.18,0.32-2.18,1.3v11.4c0,0.86,0.38,1.34,1.55,1.34h2.16c2.02,0,3.78-1.28,4.93-3.34l0.4,0.21l-1.53,3.65H289.75z"/>
	<path class="st4" d="M313.77,147c0,2.71-1.51,5.23-4.79,5.23c-3.3,0-4.79-2.52-4.79-5.23c0-2.69,1.49-5.27,4.79-5.27
		C312.26,141.73,313.77,144.32,313.77,147z M305.56,147c0,2.44,1.05,4.72,3.42,4.72c2.35,0,3.4-2.29,3.4-4.72s-1.05-4.77-3.4-4.77
		C306.61,142.24,305.56,144.57,305.56,147z"/>
	<path class="st4" d="M325.32,149.61c-0.95,1.37-2.1,2.63-4.2,2.63c-2.56,0-4.62-2.21-4.62-4.93c0-3.36,2.44-5.56,5.08-5.56
		c1.53,0,3.42,0.82,3.42,2.12c0,0.48-0.32,0.82-0.82,0.82c-0.76,0-0.8-0.63-1.07-1.15c-0.42-0.76-0.84-1.24-2.08-1.24
		c-1.66,0-3.15,1.66-3.15,4.6c0,2.67,1.26,4.51,3.61,4.51c1.26,0,2.23-0.42,3.51-1.97L325.32,149.61z"/>
	<path class="st4" d="M337.23,151.2c-0.44,0.59-0.86,1.03-1.68,1.03c-0.95,0-1.13-0.69-1.13-1.43c-0.88,0.82-1.89,1.43-3.59,1.43
		c-2.04,0-2.96-1.07-2.96-2.44c0-1.87,2.18-3.3,6.55-3.97v-1.49c0-1.26-0.61-2.1-1.87-2.1c-1.6,0-2.23,0.44-2.6,1.51
		c-0.17,0.46-0.4,0.88-0.92,0.88c-0.55,0-0.84-0.34-0.84-0.9c0-1.05,1.72-1.99,4.47-1.99c1.83,0,3.02,0.97,3.02,2.79v5.82
		c0,0.63,0.06,1.13,0.4,1.13c0.27,0,0.57-0.08,0.96-0.48L337.23,151.2z M334.42,146.4c-2.81,0.32-5.17,1.47-5.17,3.36
		c0,0.94,0.71,1.64,1.97,1.64c1.53,0,2.31-0.36,3.19-1.2V146.4z"/>
	<path class="st4" d="M338.93,151.9v-0.53c1.03,0,1.39-0.4,1.39-1.28v-11.23c0-0.63-0.31-0.99-1.39-0.99l-0.08-0.29l2.73-0.97v13.48
		c0,0.88,0.42,1.28,1.47,1.28v0.53H338.93z"/>
	<path class="st4" d="M352.75,148.03c1.11,1.7,2.86,3.67,5.82,3.67c2.12,0,3.74-0.86,3.74-3.3c0-2.06-1.26-2.73-4.51-3.67
		c-2.33-0.69-4.85-1.74-4.85-4.47c0-1.76,1.11-3.82,4.49-3.82c1.51,0,2.42,0.57,2.96,0.57c0.11,0,0.19,0,0.25-0.04l1.03-0.38
		l1.36,3.78l-0.32,0.21c-1.24-2.08-2.94-3.61-5.38-3.61c-1.7,0-3.28,0.78-3.28,2.94c0,2.22,2.06,3.06,4.28,3.67
		c2.83,0.78,5.14,1.74,5.14,4.43c0,2.96-2.18,4.22-4.87,4.22c-1.49,0-2.81-0.67-3.3-0.67c-0.46,0-1.07,0.29-1.53,0.63l-1.47-3.99
		L352.75,148.03z"/>
	<path class="st4" d="M365.71,142.57v-0.42c1.45-0.13,2.31-1.2,2.41-3.65h0.44v3.46h2.83v0.61h-2.83v7.58c0,0.78,0.5,1.18,1.36,1.18
		c0.65,0,1.34-0.46,1.87-1.09l0.25,0.19c-0.69,1.28-1.57,1.81-2.69,1.81c-1.2,0-2.06-0.76-2.06-2.37v-7.29H365.71z"/>
	<path class="st4" d="M373.73,142.49l2.65-0.76v7.94c0,1.24,0.5,1.7,1.97,1.7c1.53,0,2.5-0.69,3.25-1.32v-6.3
		c0-0.65-0.27-0.92-1.32-0.92l-0.08-0.34l2.67-0.76v8.27c0,0.9,0.42,1.34,1.39,1.34v0.44c-1.11,0.06-1.6,0.11-2.65,0.21v-1.41
		c-0.63,0.59-2.04,1.64-3.7,1.64c-1.72,0-2.79-0.92-2.79-2.56v-5.86c0-0.71-0.29-0.99-1.3-0.99L373.73,142.49z"/>
	<path class="st4" d="M396.51,151.79c-1.11,0.06-1.6,0.11-2.69,0.21v-0.92c-0.46,0.57-1.41,1.15-2.98,1.15
		c-2.98,0-4.41-2.58-4.41-5.23c0-2.64,1.32-5.27,4.41-5.27c1.68,0,2.44,0.57,3.02,1.15v-3.99c0-0.71-0.36-0.95-1.66-0.95l-0.1-0.29
		l3.02-1.03v13.37c0,0.9,0.42,1.34,1.39,1.34V151.79z M393.87,143.67c-0.57-0.78-1.24-1.22-2.6-1.22c-2.44,0-3.44,2.27-3.44,4.56
		c0,2.33,1.01,4.51,3.44,4.51c1.7,0,2.2-0.76,2.6-1.18V143.67z"/>
	<path class="st4" d="M400.02,146.63c0,3.65,1.83,4.87,3.84,4.87c1.64,0,2.9-0.67,3.95-2l0.29,0.25c-0.92,1.36-2.16,2.48-4.54,2.48
		c-2.92,0-4.89-2.1-4.89-5.27c0-2.92,1.89-5.23,4.79-5.23c2.77,0,4.49,1.79,4.49,4.89H400.02z M406.59,146.04
		c-0.13-2.63-1.26-3.8-3.15-3.8c-1.79,0-3.3,1.62-3.42,3.8H406.59z"/>
	<path class="st4" d="M410.46,151.9v-0.53c1.05,0,1.39-0.31,1.39-1.24V144c0-0.86-0.23-1.11-1.32-1.11l-0.06-0.34l2.65-0.82v1.85
		c0.92-0.78,2.12-1.83,3.84-1.83c1.72,0,2.67,1.11,2.67,2.98v5.4c0,0.92,0.4,1.24,1.41,1.24v0.53h-4.05v-0.53
		c1.01,0,1.39-0.31,1.39-1.24v-5.46c0-1.18-0.4-1.99-1.81-1.99c-1.37,0-2.41,0.63-3.44,1.55v5.9c0,0.92,0.42,1.24,1.41,1.24v0.53
		H410.46z"/>
	<path class="st4" d="M422.55,142.57v-0.42c1.45-0.13,2.31-1.2,2.41-3.65h0.44v3.46h2.83v0.61h-2.83v7.58c0,0.78,0.5,1.18,1.36,1.18
		c0.65,0,1.34-0.46,1.87-1.09l0.25,0.19c-0.69,1.28-1.57,1.81-2.69,1.81c-1.2,0-2.06-0.76-2.06-2.37v-7.29H422.55z"/>
	<path class="st4" d="M431.48,148.87c0.95,1.28,2.29,2.79,4.62,2.79c1.39,0,2.44-0.8,2.44-2.16c0-0.97-0.76-1.49-2.96-2.18
		c-3.28-1.01-4.03-1.91-4.03-3.28c0-1.28,1.26-2.31,3.28-2.31c1.16,0,1.83,0.38,2.25,0.38c0.08,0,0.15-0.02,0.21-0.04l0.78-0.36
		l1.2,3l-0.36,0.17c-0.46-0.84-2.04-2.62-4.07-2.62c-1.3,0-2.2,0.63-2.2,1.78c0,1.03,1.05,1.47,2.96,2.06
		c2.88,0.88,4.01,1.72,4.01,3.4c0,1.87-1.74,2.73-3.49,2.73c-1.2,0-1.89-0.42-2.48-0.42c-0.11,0-0.21,0-0.32,0.04l-0.86,0.36
		l-1.22-3.21L431.48,148.87z"/>
</g>
</svg>
